<svg width="945" height="803" viewBox="0 0 945 803" fill="none" xmlns="http://www.w3.org/2000/svg">
<path d="M695.891 122.513C757.854 134.824 830.886 161.311 854.494 214.725C878.605 269.278 807.89 319.503 808.477 377.247C809.099 438.334 895.179 503.854 857.939 553.296C820.935 602.425 719.885 543.485 661.843 571.929C588.417 607.913 578.886 735.366 493.487 731.902C414.561 728.7 389.469 624.199 353.633 559.426C327.561 512.301 347.818 454.015 315.393 410.002C255.606 328.846 83.7191 299.465 92.5406 205.019C100.375 121.137 250.781 122.649 343.277 111.474C408.827 103.555 469.345 149.357 535.979 151.443C592.053 153.198 640.626 111.534 695.891 122.513Z" fill="url(#paint0_linear_117_568)" fill-opacity="0.44"/>
<path d="M695.891 122.513C757.854 134.824 830.886 161.311 854.494 214.725C878.605 269.278 807.89 319.503 808.477 377.247C809.099 438.334 895.179 503.854 857.939 553.296C820.935 602.425 719.885 543.485 661.843 571.929C588.417 607.913 578.886 735.366 493.487 731.902C414.561 728.7 389.469 624.199 353.633 559.426C327.561 512.301 347.818 454.015 315.393 410.002C255.606 328.846 83.7191 299.465 92.5406 205.019C100.375 121.137 250.781 122.649 343.277 111.474C408.827 103.555 469.345 149.357 535.979 151.443C592.053 153.198 640.626 111.534 695.891 122.513Z" fill="url(#paint1_linear_117_568)" fill-opacity="0.44"/>
<defs>
<linearGradient id="paint0_linear_117_568" x1="540.843" y1="88.4603" x2="403.927" y2="713.644" gradientUnits="userSpaceOnUse">
<stop offset="0.186368" stop-color="#5AC9B5"/>
<stop offset="1" stop-color="#5AC9B5" stop-opacity="0"/>
</linearGradient>
<linearGradient id="paint1_linear_117_568" x1="540.843" y1="88.4603" x2="403.927" y2="713.644" gradientUnits="userSpaceOnUse">
<stop offset="0.186368" stop-color="#5AC9B5"/>
<stop offset="1" stop-color="#5AC9B5" stop-opacity="0"/>
</linearGradient>
</defs>
</svg>
