<svg width="1056" height="1468" viewBox="0 0 1056 1468" fill="none" xmlns="http://www.w3.org/2000/svg">
<path d="M210.13 1280.95C178.788 1231.91 97.2837 1202.36 125.356 1130.7C157.412 1048.87 272.567 1065.09 323.294 992.078C370.547 924.068 318.439 816.683 378.866 765.836C433.298 720.033 470.852 811.529 523.897 823.276C574.838 834.558 655.092 784.873 681.052 832.759C707.148 880.898 647.208 962.54 635.663 1029.44C625.338 1089.27 650.354 1147.21 617.228 1202.6C583.883 1258.36 522.196 1269.16 472.47 1302.34C415.359 1340.44 360.065 1415.69 304.602 1411.17C249.152 1406.65 240.097 1327.84 210.13 1280.95Z" fill="url(#paint0_linear_117_566)"/>
<defs>
<linearGradient id="paint0_linear_117_566" x1="262" y1="763.5" x2="446" y2="1253.5" gradientUnits="userSpaceOnUse">
<stop stop-color="#5AC9B5"/>
<stop offset="1" stop-color="#5AC9B5" stop-opacity="0"/>
</linearGradient>
</defs>
</svg>
